<svg width="60" height="17" viewBox="0 0 60 17" fill="none" xmlns="http://www.w3.org/2000/svg">
<path d="M13.568 15.904C13.392 15.952 13.112 16 12.728 16.048C12.36 16.096 11.992 16.12 11.624 16.12C11.256 16.12 10.928 16.088 10.64 16.024C10.368 15.976 10.136 15.88 9.944 15.736C9.752 15.592 9.608 15.392 9.512 15.136C9.416 14.88 9.368 14.544 9.368 14.128V10.384H4.76V15.904C4.584 15.952 4.304 16 3.92 16.048C3.552 16.096 3.184 16.12 2.816 16.12C2.448 16.12 2.12 16.088 1.832 16.024C1.56 15.976 1.328 15.88 1.136 15.736C0.944 15.592 0.8 15.392 0.704 15.136C0.608 14.88 0.56 14.544 0.56 14.128V1.456C0.736 1.424 1.016 1.384 1.4 1.336C1.784 1.272 2.152 1.24 2.504 1.24C2.872 1.24 3.192 1.272 3.464 1.336C3.752 1.384 3.992 1.48 4.184 1.624C4.376 1.768 4.52 1.968 4.616 2.224C4.712 2.48 4.76 2.816 4.76 3.232V7.072H9.368V1.456C9.544 1.424 9.824 1.384 10.208 1.336C10.592 1.272 10.96 1.24 11.312 1.24C11.68 1.24 12 1.272 12.272 1.336C12.56 1.384 12.8 1.48 12.992 1.624C13.184 1.768 13.328 1.968 13.424 2.224C13.52 2.48 13.568 2.816 13.568 3.232V15.904ZM22.291 16.384C21.347 16.384 20.467 16.256 19.651 16C18.851 15.728 18.147 15.328 17.539 14.8C16.947 14.272 16.475 13.608 16.123 12.808C15.787 12.008 15.619 11.072 15.619 10C15.619 8.944 15.787 8.04 16.123 7.288C16.475 6.52 16.931 5.896 17.491 5.416C18.051 4.92 18.691 4.56 19.411 4.336C20.131 4.096 20.867 3.976 21.619 3.976C22.467 3.976 23.235 4.104 23.923 4.36C24.627 4.616 25.227 4.968 25.723 5.416C26.235 5.864 26.627 6.4 26.899 7.024C27.187 7.648 27.331 8.328 27.331 9.064C27.331 9.608 27.179 10.024 26.875 10.312C26.571 10.6 26.147 10.784 25.603 10.864L19.675 11.752C19.851 12.28 20.211 12.68 20.755 12.952C21.299 13.208 21.923 13.336 22.627 13.336C23.283 13.336 23.899 13.256 24.475 13.096C25.067 12.92 25.547 12.72 25.915 12.496C26.171 12.656 26.387 12.88 26.563 13.168C26.739 13.456 26.827 13.76 26.827 14.08C26.827 14.8 26.491 15.336 25.819 15.688C25.307 15.96 24.731 16.144 24.091 16.24C23.451 16.336 22.851 16.384 22.291 16.384ZM21.619 6.952C21.235 6.952 20.899 7.016 20.611 7.144C20.339 7.272 20.115 7.44 19.939 7.648C19.763 7.84 19.627 8.064 19.531 8.32C19.451 8.56 19.403 8.808 19.387 9.064L23.491 8.392C23.443 8.072 23.267 7.752 22.963 7.432C22.659 7.112 22.211 6.952 21.619 6.952ZM34.0369 13.408C34.3089 13.408 34.6049 13.384 34.9249 13.336C35.2609 13.272 35.5089 13.192 35.6689 13.096V11.176L33.9409 11.32C33.4929 11.352 33.1249 11.448 32.8369 11.608C32.5489 11.768 32.4049 12.008 32.4049 12.328C32.4049 12.648 32.5249 12.912 32.7649 13.12C33.0209 13.312 33.4449 13.408 34.0369 13.408ZM33.8449 3.976C34.7089 3.976 35.4929 4.064 36.1969 4.24C36.9169 4.416 37.5249 4.688 38.0209 5.056C38.5329 5.408 38.9249 5.864 39.1969 6.424C39.4689 6.968 39.6049 7.616 39.6049 8.368V13.744C39.6049 14.16 39.4849 14.504 39.2449 14.776C39.0209 15.032 38.7489 15.256 38.4289 15.448C37.3889 16.072 35.9249 16.384 34.0369 16.384C33.1889 16.384 32.4209 16.304 31.7329 16.144C31.0609 15.984 30.4769 15.744 29.9809 15.424C29.5009 15.104 29.1249 14.696 28.8529 14.2C28.5969 13.704 28.4689 13.128 28.4689 12.472C28.4689 11.368 28.7969 10.52 29.4529 9.928C30.1089 9.336 31.1249 8.968 32.5009 8.824L35.6449 8.488V8.32C35.6449 7.856 35.4369 7.528 35.0209 7.336C34.6209 7.128 34.0369 7.024 33.2689 7.024C32.6609 7.024 32.0689 7.088 31.4929 7.216C30.9169 7.344 30.3969 7.504 29.9329 7.696C29.7249 7.552 29.5489 7.336 29.4049 7.048C29.2609 6.744 29.1889 6.432 29.1889 6.112C29.1889 5.696 29.2849 5.368 29.4769 5.128C29.6849 4.872 29.9969 4.656 30.4129 4.48C30.8769 4.304 31.4209 4.176 32.0449 4.096C32.6849 4.016 33.2849 3.976 33.8449 3.976ZM41.3456 10.168C41.3456 9.112 41.5056 8.2 41.8256 7.432C42.1456 6.648 42.5856 6 43.1456 5.488C43.7216 4.976 44.3856 4.6 45.1376 4.36C45.9056 4.104 46.7296 3.976 47.6096 3.976C47.9296 3.976 48.2416 4.008 48.5456 4.072C48.8496 4.12 49.0976 4.184 49.2896 4.264V0.375999C49.4496 0.327999 49.7056 0.279999 50.0576 0.232C50.4096 0.168 50.7696 0.136 51.1376 0.136C51.4896 0.136 51.8016 0.159999 52.0736 0.207999C52.3616 0.255999 52.6016 0.351999 52.7936 0.495999C52.9856 0.639999 53.1296 0.839999 53.2256 1.096C53.3216 1.336 53.3696 1.656 53.3696 2.056V13.432C53.3696 14.184 53.0176 14.784 52.3136 15.232C51.8496 15.536 51.2496 15.8 50.5136 16.024C49.7776 16.264 48.9296 16.384 47.9696 16.384C46.9296 16.384 45.9936 16.24 45.1616 15.952C44.3456 15.664 43.6496 15.248 43.0736 14.704C42.5136 14.16 42.0816 13.512 41.7776 12.76C41.4896 11.992 41.3456 11.128 41.3456 10.168ZM48.1616 7.168C47.2976 7.168 46.6336 7.416 46.1696 7.912C45.7056 8.408 45.4736 9.16 45.4736 10.168C45.4736 11.16 45.6896 11.912 46.1216 12.424C46.5536 12.92 47.1776 13.168 47.9936 13.168C48.2816 13.168 48.5376 13.128 48.7616 13.048C49.0016 12.952 49.1856 12.848 49.3136 12.736V7.456C48.9936 7.264 48.6096 7.168 48.1616 7.168ZM54.9421 14.056C54.9421 13.384 55.1501 12.824 55.5661 12.376C55.9821 11.928 56.5501 11.704 57.2701 11.704C57.9901 11.704 58.5581 11.928 58.9741 12.376C59.3901 12.824 59.5981 13.384 59.5981 14.056C59.5981 14.728 59.3901 15.288 58.9741 15.736C58.5581 16.184 57.9901 16.408 57.2701 16.408C56.5501 16.408 55.9821 16.184 55.5661 15.736C55.1501 15.288 54.9421 14.728 54.9421 14.056Z" fill="white"/>
</svg>
